<svg viewBox="0 0 1440 100" xmlns="http://www.w3.org/2000/svg" preserveAspectRatio="none">
    <!-- bg
    <rect x="0" y="0" width="1440" height="100" fill="#002233" />
    -->
    <path d="M0 44L34.3 38.2C68.7 32.3 137.3 20.7 205.8 28.8C274.3 37 342.7 65 411.2 66.8C479.7 68.7 548.3 44.3 617 38.7C685.7 33 754.3 46 823 54.3C891.7 62.7 960.3 66.3 1028.8 65.2C1097.3 64 1165.7 58 1234.2 53.3C1302.7 48.7 1371.3 45.3 1405.7 43.7L1440 42L1440 0L1405.7 0C1371.3 0 1302.7 0 1234.2 0C1165.7 0 1097.3 0 1028.8 0C960.3 0 891.7 0 823 0C754.3 0 685.7 0 617 0C548.3 0 479.7 0 411.2 0C342.7 0 274.3 0 205.8 0C137.3 0 68.7 0 34.3 0L0 0Z" fill="#2948ff" stroke-linecap="round" stroke-linejoin="miter" />
</svg>