<svg id="visual" viewBox="0 0 900 200" xmlns="http://www.w3.org/2000/svg" xmlns:xlink="http://www.w3.org/1999/xlink" version="1.1"><path d="M0 84L25 85C50 86 100 88 150 95.7C200 103.3 250 116.7 300 123.2C350 129.7 400 129.3 450 124C500 118.7 550 108.3 600 109C650 109.7 700 121.3 750 128.7C800 136 850 139 875 140.5L900 142L900 0L875 0C850 0 800 0 750 0C700 0 650 0 600 0C550 0 500 0 450 0C400 0 350 0 300 0C250 0 200 0 150 0C100 0 50 0 25 0L0 0Z" fill="#101010"></path><path d="M0 50L25 53.5C50 57 100 64 150 64.7C200 65.3 250 59.7 300 59.5C350 59.3 400 64.7 450 65.3C500 66 550 62 600 62.2C650 62.3 700 66.7 750 72C800 77.3 850 83.7 875 86.8L900 90L900 0L875 0C850 0 800 0 750 0C700 0 650 0 600 0C550 0 500 0 450 0C400 0 350 0 300 0C250 0 200 0 150 0C100 0 50 0 25 0L0 0Z" fill="#000000"></path></svg>
