<svg id="visual" viewBox="0 0 900 600" xmlns="http://www.w3.org/2000/svg" xmlns:xlink="http://www.w3.org/1999/xlink" version="1.1"><path d="M0 468L25 464.5C50 461 100 454 150 453.7C200 453.3 250 459.7 300 456.7C350 453.7 400 441.3 450 443.8C500 446.3 550 463.7 600 474.8C650 486 700 491 750 488.3C800 485.7 850 475.3 875 470.2L900 465L900 601L875 601C850 601 800 601 750 601C700 601 650 601 600 601C550 601 500 601 450 601C400 601 350 601 300 601C250 601 200 601 150 601C100 601 50 601 25 601L0 601Z" fill="#101010"></path><path d="M0 507L25 508.7C50 510.3 100 513.7 150 514.2C200 514.7 250 512.3 300 511.2C350 510 400 510 450 515.8C500 521.7 550 533.3 600 539.2C650 545 700 545 750 538C800 531 850 517 875 510L900 503L900 601L875 601C850 601 800 601 750 601C700 601 650 601 600 601C550 601 500 601 450 601C400 601 350 601 300 601C250 601 200 601 150 601C100 601 50 601 25 601L0 601Z" fill="#000000"></path></svg>
